<svg viewBox="324.794 206.8325 643.2271 459.3258" width="150" height="107.112" xmlns="http://www.w3.org/2000/svg" xmlns:xlink="http://www.w3.org/1999/xlink" preserveAspectRatio="none"><defs></defs><style>.aIptOCySncolors-0 {fill:#F3B340;fill-opacity:1;}.aIptOCySncolors-1 {fill:#E66A2C;fill-opacity:1;}.aIptOCySncolors-2 {fill:#F094A7;fill-opacity:1;}.aIptOCySncolors-3 {fill:#F3B340;fill-opacity:1;}.aIptOCySncolors-4 {fill:#E66A2C;fill-opacity:1;}.aIptOCySncolors-5 {fill:#F094A7;fill-opacity:1;}.aIptOCySncolors-6 {fill:#F3B340;fill-opacity:1;}.aIptOCySncolors-7 {fill:#E66A2C;fill-opacity:1;}.aq6WP-wJgVstrokeColor-str {stroke:#364C63;stroke-opacity:1;}.companyName {fill:#364C63;fill-opacity:1;}.icon1 {fill:#F3B340;fill-opacity:1;}.icon3-str {stroke:#F094A7;stroke-opacity:1;}.shapeStroke-str {stroke:#364C63;stroke-opacity:1;}.text {fill:#364C63;fill-opacity:1;}</style><g opacity="1" transform="rotate(0 450.5924 556.2586)">
<svg width="121.5029" height="2.3974" x="450.5924" y="556.2586" version="1.1" preserveAspectRatio="none" viewBox="0 0 121.5029 2.3974">
  <rect x="0" y="0" width="121.5029" height="2.3974" class="icon1 shapeStroke-str" style="stroke-width:0;" rx="0px" ry="0px" />
</svg>
</g><g opacity="1" transform="rotate(0 546.2864 439.1888)">
<svg width="200.2423" height="119.4672" x="546.2864" y="439.1888" version="1.1" preserveAspectRatio="none" viewBox="972.072265625 12681.556640625 58055.8515625 34636.8828125">
  <g transform="matrix(1 0 0 1 0 0)" class="aIptOCySncolors-0"><defs></defs><g><path class="fil0" d="M29441.74 29610.53l800 0 0 4000 -800 0 0 -4000zm-2048.26 16907.91c220.91,0 400,179.09 400,400 0,220.91 -179.09,400 -400,400l-6851.68 0c-220.91,0 -400,-179.09 -400,-400 0,-220.91 179.09,-400 400,-400l6851.68 0zm-10238.35 0c220.91,0 400,179.09 400,400 0,220.91 -179.09,400 -400,400l-9207.41 0c-220.91,0 -400,-179.09 -400,-400 0,-220.91 179.09,-400 400,-400l9207.41 0zm15663.43 800c-220.91,0 -400,-179.09 -400,-400 0,-220.91 179.09,-400 400,-400l6851.68 0c220.91,0 400,179.09 400,400 0,220.91 -179.09,400 -400,400l-6851.68 0zm10238.35 0c-220.91,0 -400,-179.09 -400,-400 0,-220.91 179.09,-400 400,-400l9207.41 0c220.91,0 400,179.09 400,400 0,220.91 -179.09,400 -400,400l-9207.41 0zm-22555.63 -2704.71c220.91,0 400,179.09 400,400 0,220.91 -179.09,400 -400,400l-19129.21 0c-220.91,0 -400,-179.09 -400,-400 0,-220.91 179.09,-400 400,-400l19129.21 0zm-3768.79 -2331.72l190.14 -777.08 3885.38 950.67 -190.14 777.08 -3885.38 -950.67zm-9324.92 -2281.63l190.14 -777.08 3885.39 950.69 -190.14 777.08 -3885.39 -950.69zm6216.62 1521.1l190.14 -777.08 777.07 190.13 -190.14 777.08 -777.07 -190.13zm7719.8 -1335.44c196.75,100.1 275.1,340.75 175,537.5 -100.1,196.75 -340.75,275.1 -537.5,175l-15557.5 -7911.06c-196.75,-100.1 -275.1,-340.75 -175,-537.5 100.1,-196.75 340.75,-275.1 537.5,-175l15557.5 7911.06zm971.32 -1847.27c167.41,143.25 187,395.1 43.75,562.51 -143.25,167.41 -395.1,187 -562.51,43.75l-7774.08 -6689.95c-167.41,-143.25 -187,-395.1 -43.75,-562.51 143.25,-167.41 395.1,-187 562.51,-43.75l7774.08 6689.95zm-10043.7 -8643.06c167.41,143.25 187,395.1 43.75,562.51 -143.25,167.41 -395.1,187 -562.51,43.75l-2040.62 -1756.04c-167.41,-143.25 -187,-395.1 -43.75,-562.51 143.25,-167.41 395.1,-187 562.51,-43.75l2040.62 1756.04zm-3940.52 -3390.99c167.41,143.25 187,395.1 43.75,562.51 -143.25,167.41 -395.1,187 -562.51,43.75l-993.57 -855.01c-167.41,-143.25 -187,-395.1 -43.75,-562.51 143.25,-167.41 395.1,-187 562.51,-43.75l993.57 855.01zm5576.15 -1775.06c-128.57,-178.63 -88,-427.68 90.63,-556.25 178.63,-128.57 427.68,-88 556.25,90.63l9504.48 13171.96c128.57,178.63 88,427.68 -90.63,556.25 -178.63,128.57 -427.68,88 -556.25,-90.63l-9504.48 -13171.96zm2004.31 -7713.81c-127.18,-253.27 -467.76,-298.62 -656.96,-87.36 -108.57,123.4 -132.05,296.9 -58.96,444.36l713.99 1431.85c127.18,253.27 467.76,298.62 656.96,87.36 108.57,-123.4 132.05,-296.9 58.96,-444.36l-713.99 -1431.85zm8923.04 19687.03c127.18,253.27 467.76,298.62 656.96,87.36 108.57,-123.4 132.05,-296.9 58.96,-444.36l-714 -1431.86c-127.18,-253.27 -467.76,-298.62 -656.96,-87.36 -108.57,123.4 -132.05,296.9 -58.96,444.36l714 1431.86zm-1785 -3579.65c127.18,253.27 467.76,298.62 656.96,87.36 108.57,-123.4 132.05,-296.9 58.96,-444.36l-714 -1431.86c-127.18,-253.27 -467.76,-298.62 -656.96,-87.36 -108.57,123.4 -132.05,296.9 -58.96,444.36l714 1431.86zm-1785 -3579.64c127.18,253.27 467.76,298.62 656.96,87.36 108.57,-123.4 132.05,-296.9 58.96,-444.36l-714 -1431.85c-127.18,-253.27 -467.76,-298.62 -656.96,-87.36 -108.57,123.4 -132.05,296.9 -58.96,444.36l714 1431.85zm-1785 -3579.63c127.18,253.27 467.76,298.62 656.96,87.36 108.57,-123.4 132.05,-296.9 58.96,-444.36l-714 -1431.85c-127.18,-253.27 -467.76,-298.62 -656.96,-87.36 -108.57,123.4 -132.05,296.9 -58.96,444.36l714 1431.85zm-1784.99 -3579.63c127.18,253.27 467.76,298.62 656.96,87.36 108.57,-123.4 132.05,-296.9 58.96,-444.36l-713.99 -1431.85c-127.18,-253.27 -467.76,-298.62 -656.96,-87.36 -108.57,123.4 -132.05,296.9 -58.96,444.36l713.99 1431.85zm5744.83 2371.1l-755.36 263.5 -1317.48 -3776.8 755.36 -263.5 1317.48 3776.8zm2651.27 7600.29l-806.79 -2312.77 -755.36 263.5 806.79 2312.77 755.36 -263.5zm-1597.29 -4578.85l-755.36 263.5 -263.49 -755.36 755.36 -263.5 263.49 755.36zm508.94 -8241.48c-36.24,-217.46 110.66,-423.14 328.12,-459.38 217.46,-36.24 423.14,110.66 459.38,328.12l2751.66 16404.18c36.24,217.46 -110.66,423.14 -328.12,459.38 -217.46,36.24 -423.14,-110.66 -459.38,-328.12l-2751.66 -16404.18zm14179.81 26078.34c-220.91,0 -400,-179.09 -400,-400 0,-220.91 179.09,-400 400,-400l19445.76 0c220.91,0 400,179.09 400,400 0,220.91 -179.09,400 -400,400l-19445.76 0zm3578.65 -3908.8l190.14 777.08 -3885.38 950.67 -190.14 -777.08 3885.38 -950.67zm9324.92 -2281.63l190.14 777.08 -3885.39 950.69 -190.14 -777.08 3885.39 -950.69zm-6216.62 1521.1l190.14 777.08 -777.07 190.13 -190.14 -777.08 777.07 -190.13zm-7167.16 154.14c-196.75,100.1 -437.4,21.75 -537.5,-175 -100.1,-196.75 -21.75,-437.4 175,-537.5l15557.5 -7911.06c196.75,-100.1 437.4,-21.75 537.5,175 100.1,196.75 21.75,437.4 -175,537.5l-15557.5 7911.06zm-815.06 -1953.51c-167.41,143.25 -419.26,123.66 -562.51,-43.75 -143.25,-167.41 -123.66,-419.26 43.75,-562.51l7774.08 -6689.95c167.41,-143.25 419.26,-123.66 562.51,43.75 143.25,167.41 123.66,419.26 -43.75,562.51l-7774.08 6689.95zm10043.7 -8643.06c-167.41,143.25 -419.26,123.66 -562.51,-43.75 -143.25,-167.41 -123.66,-419.26 43.75,-562.51l2040.62 -1756.04c167.41,-143.25 419.26,-123.66 562.51,43.75 143.25,167.41 123.66,419.26 -43.75,562.51l-2040.62 1756.04zm3940.52 -3390.99c-167.41,143.25 -419.26,123.66 -562.51,-43.75 -143.25,-167.41 -123.66,-419.26 43.75,-562.51l993.57 -855.01c167.41,-143.25 419.26,-123.66 562.51,43.75 143.25,167.41 123.66,419.26 -43.75,562.51l-993.57 855.01zm-6741.79 -2846.94c128.57,-178.63 377.62,-219.2 556.25,-90.63 178.63,128.57 219.2,377.62 90.63,556.25l-9504.48 13171.96c-128.57,178.63 -377.62,219.2 -556.25,90.63 -178.63,-128.57 -219.2,-377.62 -90.63,-556.25l9504.48 -13171.96zm-641.51 -6891.19c75.38,-152.07 47.84,-332.14 -68.9,-455.14 -192.77,-199.57 -522.51,-149.8 -647.02,98.14l-713.99 1431.85c-75.38,152.07 -47.84,332.14 68.9,455.14 192.77,199.57 522.51,149.8 647.02,-98.14l713.99 -1431.85zm-10354.88 18973.03c-75.38,152.07 -47.84,332.14 68.9,455.14 192.77,199.57 522.51,149.8 647.02,-98.14l714 -1431.86c75.38,-152.07 47.84,-332.14 -68.9,-455.14 -192.77,-199.57 -522.51,-149.8 -647.02,98.14l-714 1431.86zm1785 -3579.65c-75.38,152.07 -47.84,332.14 68.9,455.14 192.77,199.57 522.51,149.8 647.02,-98.14l714 -1431.86c75.38,-152.07 47.84,-332.14 -68.9,-455.14 -192.77,-199.57 -522.51,-149.8 -647.02,98.14l-714 1431.86zm1785 -3579.64c-75.38,152.07 -47.84,332.14 68.9,455.14 192.77,199.57 522.51,149.8 647.02,-98.14l714 -1431.85c75.38,-152.07 47.84,-332.14 -68.9,-455.14 -192.77,-199.57 -522.51,-149.8 -647.02,98.14l-714 1431.85zm1785 -3579.63c-75.38,152.07 -47.84,332.14 68.9,455.14 192.77,199.57 522.51,149.8 647.02,-98.14l714 -1431.85c75.38,-152.07 47.84,-332.14 -68.9,-455.14 -192.77,-199.57 -522.51,-149.8 -647.02,98.14l-714 1431.85zm1784.99 -3579.63c-75.38,152.07 -47.84,332.14 68.9,455.14 192.77,199.57 522.51,149.8 647.02,-98.14l713.99 -1431.85c75.38,-152.07 47.84,-332.14 -68.9,-455.14 -192.77,-199.57 -522.51,-149.8 -647.02,98.14l-713.99 1431.85zm-4273.55 2991.6l-755.36 -263.5 1317.48 -3776.8 755.36 263.5 -1317.48 3776.8zm-2651.27 7600.29l806.79 -2312.77 -755.36 -263.5 -806.79 2312.77 755.36 263.5zm1597.29 -4578.85l-755.36 -263.5 263.49 -755.36 755.36 263.5 -263.49 755.36zm-2051.8 -8636.24c36.24,-217.46 241.92,-364.36 459.38,-328.12 217.46,36.24 364.36,241.92 328.12,459.38l-2751.66 16404.18c-36.24,217.46 -241.92,364.36 -459.38,328.12 -217.46,-36.24 -364.36,-241.92 -328.12,-459.38l2751.66 -16404.18zm-4451.85 -6522.58l0 1728.99 800 0 0 -1728.99 -800 0zm0 4128.99l800 0 0 800 -800 0 0 -800zm0 3200l800 0 0 3999.99 -800 0 0 -3999.99zm0 6399.99l800 0 0 800 -800 0 0 -800z"></path></g></g>
</svg>
</g><g opacity="1" transform="rotate(0 494.0738 206.8325)">
<svg width="298.6675" height="185.2102" x="494.0738" y="206.8325" version="1.1" preserveAspectRatio="none" viewBox="-0.12 -25.12 109.16 67.69330000000001">
  <g transform="matrix(1 0 0 1 0 0)" class="companyName"><path id="id-D6z1nYkh10" d="M17-14.12Q20.12-13.92 22.04-12.04Q23.96-10.16 23.96-7.40L23.96-7.40Q23.96-5.24 22.96-3.52Q21.96-1.80 20.20-0.82Q18.44 0.16 16.32 0.16L16.32 0.16Q14.96 0.16 13.44 0.04L13.44 0.04Q12.88 0 12.12-0.04Q11.36-0.08 10.40-0.08L10.40-0.08L7.76-0.04Q7.04 0 5.76 0L5.76 0Q5.68 0 5.68-0.24Q5.68-0.48 5.76-0.48L5.76-0.48Q7.36-0.48 8.10-0.68Q8.84-0.88 9.12-1.46Q9.40-2.04 9.40-3.24L9.40-3.24L9.40-21.76Q9.40-22.96 9.14-23.52Q8.88-24.08 8.14-24.30Q7.40-24.52 5.84-24.52L5.84-24.52Q5.72-24.52 5.72-24.76Q5.72-25 5.84-25L5.84-25L7.76-24.96Q9.36-24.88 10.40-24.88L10.40-24.88Q11.12-24.88 11.76-24.92Q12.40-24.96 12.88-25L12.88-25Q14.12-25.12 15.08-25.12L15.08-25.12Q18.40-25.12 19.98-23.62Q21.56-22.12 21.56-19.80L21.56-19.80Q21.56-17.84 20.32-16.38Q19.08-14.92 17-14.12L17-14.12ZM14.16-24.60Q13.04-24.60 12.52-24.44Q12-24.28 11.74-23.68Q11.48-23.08 11.48-21.68L11.48-21.68L11.48-14.08L13.36-14.04Q16.52-14.04 17.96-15.54Q19.40-17.04 19.40-19.52L19.40-19.52Q19.40-21.76 18.14-23.18Q16.88-24.60 14.16-24.60L14.16-24.60ZM15.76-0.48Q18.72-0.48 20.18-2.02Q21.64-3.56 21.64-6.40L21.64-6.40Q21.64-9.44 19.78-11.34Q17.92-13.24 14.76-13.28L14.76-13.28Q13.28-13.32 11.48-13.20L11.48-13.20L11.48-3.24Q11.48-2.16 11.82-1.58Q12.16-1 13.08-0.74Q14-0.48 15.76-0.48L15.76-0.48Z M43.20-5.32Q43.20-5.44 43.42-5.44Q43.64-5.44 43.64-5.32L43.64-5.32Q43.36-2.44 43.36-0.60L43.36-0.60Q43.36-0.28 43.24-0.14Q43.12 0 42.76 0L42.76 0L28.20 0Q28.12 0 28.12-0.24Q28.12-0.48 28.20-0.48L28.20-0.48Q29.56-0.48 30.20-0.68Q30.84-0.88 31.06-1.46Q31.28-2.04 31.28-3.24L31.28-3.24L31.28-15.48Q31.28-16.68 31.06-17.24Q30.84-17.80 30.20-18.02Q29.56-18.24 28.20-18.24L28.20-18.24Q28.12-18.24 28.12-18.48Q28.12-18.72 28.20-18.72L28.20-18.72L42.04-18.72Q42.44-18.72 42.44-18.40L42.44-18.40L42.48-15.92Q42.52-15.16 42.52-14L42.52-14Q42.52-13.88 42.28-13.88Q42.04-13.88 42.04-14L42.04-14Q42.04-15.88 40.96-17.04Q39.88-18.20 38.12-18.20L38.12-18.20L36.76-18.20Q35.24-18.20 34.54-17.98Q33.84-17.76 33.58-17.20Q33.32-16.64 33.32-15.44L33.32-15.44L33.32-9.96Q37.40-10 38.84-10.16Q40.28-10.32 40.44-10.32L40.44-10.32Q40.64-10.32 40.64-9.48L40.64-9.48Q40.64-8.60 40.44-8.60L40.44-8.60Q40.28-8.60 38.84-8.84Q37.40-9.08 33.32-9.12L33.32-9.12L33.32-3.40Q33.32-2.24 33.58-1.66Q33.84-1.08 34.56-0.86Q35.28-0.64 36.76-0.64L36.76-0.64L39.08-0.64Q40.64-0.64 41.76-1.94Q42.88-3.24 43.20-5.32L43.20-5.32Z M58.04 0.48Q54.84 0.48 52.46-0.86Q50.08-2.20 48.84-4.40Q47.60-6.60 47.60-9.04L47.60-9.04Q47.60-12.16 49.02-14.46Q50.44-16.76 53.04-17.98Q55.64-19.20 59.12-19.20L59.12-19.20Q60.80-19.20 62.28-18.88Q63.76-18.56 64.80-17.96L64.80-17.96Q65-17.84 65.08-17.64Q65.16-17.44 65.20-17.08L65.20-17.08L65.64-13.32Q65.64-13.20 65.42-13.18Q65.20-13.16 65.16-13.28L65.16-13.28Q64.40-16.16 62.66-17.42Q60.92-18.68 58.16-18.68L58.16-18.68Q54.48-18.68 52.24-16.22Q50-13.76 50-9.56L50-9.56Q50-6.76 51.10-4.60Q52.20-2.44 54.24-1.24Q56.28-0.04 59-0.04L59-0.04Q61.16-0.04 62.14-0.42Q63.12-0.80 63.46-1.82Q63.80-2.84 63.80-5.04L63.80-5.04Q63.80-6.08 63.56-6.50Q63.32-6.92 62.58-7.06Q61.84-7.20 59.96-7.20L59.96-7.20Q59.72-7.20 59.72-7.52L59.72-7.52Q59.72-7.64 59.78-7.74Q59.84-7.84 59.92-7.84L59.92-7.84Q62-7.68 64.12-7.68L64.12-7.68Q65.08-7.68 67.32-7.76L67.32-7.76Q67.40-7.76 67.46-7.66Q67.52-7.56 67.52-7.48L67.52-7.48Q67.52-7.20 67.32-7.20L67.32-7.20Q66.48-7.24 66.16-7.08Q65.84-6.92 65.74-6.42Q65.64-5.92 65.64-4.64L65.64-4.64Q65.64-2.84 65.72-2.12Q65.80-1.40 65.80-1.12L65.80-1.12Q65.80-0.88 65.74-0.82Q65.68-0.76 65.36-0.64L65.36-0.64Q62.80 0.48 58.04 0.48L58.04 0.48Z M76.12-3.24Q76.12-2 76.34-1.44Q76.56-0.88 77.18-0.68Q77.80-0.48 79.20-0.48L79.20-0.48Q79.32-0.48 79.32-0.24Q79.32 0 79.20 0L79.20 0Q78.12 0 77.52-0.04L77.52-0.04L75.04-0.08L72.68-0.04Q72.04 0 70.92 0L70.92 0Q70.84 0 70.84-0.24Q70.84-0.48 70.92-0.48L70.92-0.48Q72.32-0.48 72.96-0.68Q73.60-0.88 73.82-1.46Q74.04-2.04 74.04-3.24L74.04-3.24L74.04-15.48Q74.04-16.68 73.82-17.24Q73.60-17.80 72.94-18.02Q72.28-18.24 70.92-18.24L70.92-18.24Q70.84-18.24 70.84-18.48Q70.84-18.72 70.92-18.72L70.92-18.72L72.68-18.68Q74.20-18.60 75.04-18.60L75.04-18.60Q76.04-18.60 77.56-18.68L77.56-18.68L79.20-18.72Q79.32-18.72 79.32-18.48Q79.32-18.24 79.20-18.24L79.20-18.24Q77.88-18.24 77.24-18Q76.60-17.76 76.36-17.18Q76.12-16.60 76.12-15.40L76.12-15.40L76.12-3.24Z M103.16-18.72Q103.24-18.72 103.24-18.48Q103.24-18.24 103.16-18.24L103.16-18.24Q101.68-18.24 101.08-17.42Q100.48-16.60 100.48-14.56L100.48-14.56L100.48 0.44Q100.48 0.52 100.28 0.56Q100.08 0.60 100 0.52L100 0.52L87.12-15.44L86.44-16.24L86.44-4.16Q86.44-2.12 87.02-1.30Q87.60-0.48 89.04-0.48L89.04-0.48Q89.12-0.48 89.12-0.24Q89.12 0 89.04 0L89.04 0Q88.16 0 87.72-0.04L87.72-0.04L86.08-0.08L84.40-0.04Q83.92 0 83.04 0L83.04 0Q82.92 0 82.92-0.24Q82.92-0.48 83.04-0.48L83.04-0.48Q84.52-0.48 85.08-1.30Q85.64-2.12 85.64-4.16L85.64-4.16L85.64-17.04Q84.32-18.24 83.12-18.24L83.12-18.24Q83.04-18.24 83.04-18.48Q83.04-18.72 83.12-18.72L83.12-18.72L85.36-18.68L87.08-18.72Q87.40-18.72 87.54-18.58Q87.68-18.44 87.96-17.96L87.96-17.96Q88.40-17.24 88.88-16.64L88.88-16.64L99.68-3.08L99.68-14.56Q99.68-16.60 99.12-17.42Q98.56-18.24 97.12-18.24L97.12-18.24Q97-18.24 97-18.48Q97-18.72 97.12-18.72L97.12-18.72L98.44-18.68Q99.40-18.60 100.08-18.60L100.08-18.60Q100.72-18.60 101.76-18.68L101.76-18.68L103.16-18.72Z M27.76 41.52Q27.92 41.52 27.92 41.76Q27.92 42 27.76 42L27.76 42Q27.04 42 25.44 41.92L25.44 41.92Q23.92 41.84 23.20 41.84L23.20 41.84Q22.36 41.84 21 41.92L21 41.92Q19.72 42 19.08 42L19.08 42Q18.92 42 18.92 41.76Q18.92 41.52 19.08 41.52L19.08 41.52Q20.72 41.52 21.44 41.22Q22.16 40.92 22.16 40.20L22.16 40.20Q22.16 39.64 21.72 38.64L21.72 38.64L16.96 28.44L9.32 28.44L5.72 37.08Q5.16 38.44 5.16 39.32L5.16 39.32Q5.16 40.48 6.12 41Q7.08 41.52 9.12 41.52L9.12 41.52Q9.32 41.52 9.32 41.76Q9.32 42 9.12 42L9.12 42Q8.40 42 7.04 41.92L7.04 41.92Q5.52 41.84 4.40 41.84L4.40 41.84Q3.40 41.84 2.04 41.92L2.04 41.92Q0.84 42 0.08 42L0.08 42Q-0.12 42-0.12 41.76Q-0.12 41.52 0.08 41.52L0.08 41.52Q1.20 41.52 1.98 41.12Q2.76 40.72 3.46 39.68Q4.16 38.64 4.96 36.72L4.96 36.72L13.32 16.60Q13.40 16.48 13.58 16.48Q13.76 16.48 13.80 16.60L13.80 16.60L23.08 36.52Q24 38.56 24.72 39.62Q25.44 40.68 26.14 41.10Q26.84 41.52 27.76 41.52L27.76 41.52ZM12.92 19.76L9.64 27.68L16.64 27.68L12.92 19.76Z M40.64 42.48Q37.44 42.48 35.06 41.14Q32.68 39.80 31.44 37.60Q30.20 35.40 30.20 32.96L30.20 32.96Q30.20 29.84 31.62 27.54Q33.04 25.24 35.64 24.02Q38.24 22.80 41.72 22.80L41.72 22.80Q43.40 22.80 44.88 23.12Q46.36 23.44 47.40 24.04L47.40 24.04Q47.60 24.16 47.68 24.36Q47.76 24.56 47.80 24.92L47.80 24.92L48.24 28.68Q48.24 28.80 48.02 28.82Q47.80 28.84 47.76 28.72L47.76 28.72Q47 25.84 45.26 24.58Q43.52 23.32 40.76 23.32L40.76 23.32Q37.08 23.32 34.84 25.78Q32.60 28.24 32.60 32.44L32.60 32.44Q32.60 35.24 33.70 37.40Q34.80 39.56 36.84 40.76Q38.88 41.96 41.60 41.96L41.60 41.96Q43.76 41.96 44.74 41.58Q45.72 41.20 46.06 40.18Q46.40 39.16 46.40 36.96L46.40 36.96Q46.40 35.92 46.16 35.50Q45.92 35.08 45.18 34.94Q44.44 34.80 42.56 34.80L42.56 34.80Q42.32 34.80 42.32 34.48L42.32 34.48Q42.32 34.36 42.38 34.26Q42.44 34.16 42.52 34.16L42.52 34.16Q44.60 34.32 46.72 34.32L46.72 34.32Q47.68 34.32 49.92 34.24L49.92 34.24Q50 34.24 50.06 34.34Q50.12 34.44 50.12 34.52L50.12 34.52Q50.12 34.80 49.92 34.80L49.92 34.80Q49.08 34.76 48.76 34.92Q48.44 35.08 48.34 35.58Q48.24 36.08 48.24 37.36L48.24 37.36Q48.24 39.16 48.32 39.88Q48.40 40.60 48.40 40.88L48.40 40.88Q48.40 41.12 48.34 41.18Q48.28 41.24 47.96 41.36L47.96 41.36Q45.40 42.48 40.64 42.48L40.64 42.48Z M74.08 41.52Q74.24 41.52 74.24 41.76Q74.24 42 74.08 42L74.08 42Q73.36 42 71.76 41.92L71.76 41.92Q70.24 41.84 69.52 41.84L69.52 41.84Q68.96 41.84 67.92 41.92L67.92 41.92Q66.96 42 66.44 42L66.44 42Q66.28 42 66.28 41.76Q66.28 41.52 66.44 41.52L66.44 41.52Q67.52 41.52 68.06 41.24Q68.60 40.96 68.60 40.28L68.60 40.28Q68.60 39.64 68.12 38.64L68.12 38.64L65.36 32.64L59.48 32.64L57.72 37.08Q57.08 38.76 57.08 39.56L57.08 39.56Q57.08 40.60 57.82 41.06Q58.56 41.52 60.04 41.52L60.04 41.52Q60.24 41.52 60.24 41.76Q60.24 42 60.04 42L60.04 42Q59.44 42 58.40 41.92L58.40 41.92Q57.28 41.84 56.32 41.84L56.32 41.84Q55.32 41.84 53.96 41.92L53.96 41.92Q52.76 42 52.04 42L52.04 42Q51.88 42 51.88 41.76Q51.88 41.52 52.04 41.52L52.04 41.52Q53.28 41.52 54 41.18Q54.72 40.84 55.32 39.84Q55.92 38.84 56.80 36.72L56.80 36.72L62.52 22.68Q62.60 22.52 62.76 22.52Q62.92 22.52 62.96 22.68L62.96 22.68L69.40 36.52Q70.44 38.76 71.06 39.76Q71.68 40.76 72.34 41.14Q73 41.52 74.08 41.52L74.08 41.52ZM62.20 25.84L59.76 32L65.04 32L62.20 25.84Z M81.92 38.76Q81.92 40 82.14 40.56Q82.36 41.12 82.98 41.32Q83.60 41.52 85 41.52L85 41.52Q85.12 41.52 85.12 41.76Q85.12 42 85 42L85 42Q83.92 42 83.32 41.96L83.32 41.96L80.84 41.92L78.48 41.96Q77.84 42 76.72 42L76.72 42Q76.64 42 76.64 41.76Q76.64 41.52 76.72 41.52L76.72 41.52Q78.12 41.52 78.76 41.32Q79.40 41.12 79.62 40.54Q79.84 39.96 79.84 38.76L79.84 38.76L79.84 26.52Q79.84 25.32 79.62 24.76Q79.40 24.20 78.74 23.98Q78.08 23.76 76.72 23.76L76.72 23.76Q76.64 23.76 76.64 23.52Q76.64 23.28 76.72 23.28L76.72 23.28L78.48 23.32Q80 23.40 80.84 23.40L80.84 23.40Q81.84 23.40 83.36 23.32L83.36 23.32L85 23.28Q85.12 23.28 85.12 23.52Q85.12 23.76 85 23.76L85 23.76Q83.68 23.76 83.04 24Q82.40 24.24 82.16 24.82Q81.92 25.40 81.92 26.60L81.92 26.60L81.92 38.76Z M108.96 23.28Q109.04 23.28 109.04 23.52Q109.04 23.76 108.96 23.76L108.96 23.76Q107.48 23.76 106.88 24.58Q106.28 25.40 106.28 27.44L106.28 27.44L106.28 42.44Q106.28 42.52 106.08 42.56Q105.88 42.60 105.80 42.52L105.80 42.52L92.92 26.56L92.24 25.76L92.24 37.84Q92.24 39.88 92.82 40.70Q93.40 41.52 94.84 41.52L94.84 41.52Q94.92 41.52 94.92 41.76Q94.92 42 94.84 42L94.84 42Q93.96 42 93.52 41.96L93.52 41.96L91.88 41.92L90.20 41.96Q89.72 42 88.84 42L88.84 42Q88.72 42 88.72 41.76Q88.72 41.52 88.84 41.52L88.84 41.52Q90.32 41.52 90.88 40.70Q91.44 39.88 91.44 37.84L91.44 37.84L91.44 24.96Q90.12 23.76 88.92 23.76L88.92 23.76Q88.84 23.76 88.84 23.52Q88.84 23.28 88.92 23.28L88.92 23.28L91.16 23.32L92.88 23.28Q93.20 23.28 93.34 23.42Q93.48 23.56 93.76 24.04L93.76 24.04Q94.20 24.76 94.68 25.36L94.68 25.36L105.48 38.92L105.48 27.44Q105.48 25.40 104.92 24.58Q104.36 23.76 102.92 23.76L102.92 23.76Q102.80 23.76 102.80 23.52Q102.80 23.28 102.92 23.28L102.92 23.28L104.24 23.32Q105.20 23.40 105.88 23.40L105.88 23.40Q106.52 23.40 107.56 23.32L107.56 23.32L108.96 23.28Z"/></g>
</svg>
</g><g opacity="1" transform="rotate(0 324.794 613.1935)">
<svg width="643.2271" height="52.9648" x="324.794" y="613.1935" version="1.1" preserveAspectRatio="none" viewBox="-1.2695 -31.5039 436.36870000000005 35.9375">
  <g transform="matrix(1 0 0 1 0 0)" class="text"><path id="id-D-YM9nyY413" d="M22.50-26.93L22.50-26.93Q21.05-28.38 18.71-28.38L18.71-28.38Q15.39-28.38 12.85-26.52L12.85-26.52Q10.16-24.59 10.16-21.84L10.16-21.84Q10.16-19.69 12.17-17.77L12.17-17.77Q11.43-16.76 9.84-16.05L9.84-16.05Q9.41-15.86 8.96-15.86Q8.52-15.86 7.94-16.13Q7.36-16.41 6.91-16.91L6.91-16.91Q5.90-18.07 5.90-19.67Q5.90-21.27 6.46-22.64Q7.03-24.00 8.01-25.19Q8.98-26.37 10.28-27.32Q11.58-28.28 13.05-28.98L13.05-28.98Q16.11-30.41 19.03-30.41Q21.95-30.41 23.91-29.36L23.91-29.36Q28.44-26.91 28.44-18.34L28.44-18.34Q28.44-15.74 28.03-12.56L28.03-12.56Q31.35-16.33 40.90-24.18L40.90-24.18Q42.21-25.23 43.34-26.21L43.34-26.21Q44.39-28.89 45.08-29.73L45.08-29.73Q46.19-31.11 46.99-31.11Q47.79-31.11 48.09-30.71Q48.38-30.31 48.38-29.95Q48.38-29.59 48.17-29.20Q47.97-28.81 47.66-28.36L47.66-28.36Q47.01-27.46 46.25-26.62L46.25-26.62Q44.32-16.13 44.32-5.47L44.32-5.47Q44.32-1.66 41.17-0.27L41.17-0.27Q39.75 0.35 38.09 0.35L38.09 0.35Q35.59 0.35 33.79-0.84L33.79-0.84Q33.09-1.31 32.70-1.91L32.70-1.91Q34.82-3.69 38.93-13.91L38.93-13.91Q40.57-18.01 41.95-22.27L41.95-22.27L38.11-18.42Q30.78-11.09 27.50-6.62L27.50-6.62Q27.21-4.32 25.86-1.76L25.86-1.76Q25.02-0.21 24.48 0.29Q23.95 0.80 23.67 0.80L23.67 0.80Q21.84 0.80 19.79-0.29Q17.73-1.39 17.73-2.34L17.73-2.34Q17.73-3.63 20.16-6.43L20.16-6.43Q20.82-7.21 21.50-7.89L21.50-7.89Q24.51-14.47 24.51-20.39L24.51-20.39Q24.51-21.09 24.40-22.48Q24.30-23.87 23.57-25.39L23.57-25.39Q20.84-16.41 15.74-8.75L15.74-8.75Q12.15-3.38 8.38-1.15L8.38-1.15Q6.43 0 4.47 0Q2.52 0 1.29-0.61L1.29-0.61Q-1.27-1.88-1.27-4.88L-1.27-4.88Q-1.27-6.84-0.27-8.46L-0.27-8.46Q0.27-9.34 0.96-9.75L0.96-9.75Q3.59-7.87 6.27-7.87L6.27-7.87Q10.21-7.87 14.10-12.19L14.10-12.19Q17.52-16.00 20.86-23.26L20.86-23.26Q21.76-25.21 22.50-26.93Z M74.12-8.50L74.12-8.50Q75.08-7.62 75.08-7.27L75.08-7.27Q75.08-5.66 73.36-3.83L73.36-3.83Q70.60-0.86 66.46 0.18L66.46 0.18Q65.06 0.53 63.09 0.53Q61.13 0.53 59.14-0.04Q57.15-0.61 55.76-1.64L55.76-1.64Q52.95-3.77 52.95-7.30L52.95-7.30Q52.95-12.64 57.56-16.05L57.56-16.05Q61.83-19.22 67.59-19.41L67.59-19.41Q64.37-21.46 64.37-24.24L64.37-24.24Q64.37-26.95 69.00-28.79L69.00-28.79Q73.24-30.45 77.91-30.45L77.91-30.45Q81.33-30.45 82.48-28.46L82.48-28.46Q82.85-27.79 82.85-27.03Q82.85-26.27 82.64-25.60Q82.44-24.92 82.09-24.38L82.09-24.38Q81.27-23.14 80.17-23.14L80.17-23.14Q79.49-23.14 78.55-23.93L78.55-23.93Q78.32-24.12 78.20-24.26L78.20-24.26Q79.06-25.27 79.06-26.68L79.06-26.68Q79.06-28.30 76.87-28.30L76.87-28.30Q74.37-28.30 71.56-27.42L71.56-27.42Q68.12-26.33 68.12-24.67L68.12-24.67Q68.12-22.05 72.95-20.20L72.95-20.20Q74.63-19.55 76.85-19.08L76.85-19.08Q76.11-16.25 75.88-15.97Q75.64-15.68 75.54-15.72L75.54-15.72Q72.75-16.68 69.94-16.68L69.94-16.68Q65.47-16.68 62.75-14.45L62.75-14.45Q60.52-12.66 60.52-10.06L60.52-10.06Q60.52-8.20 62.20-7.03L62.20-7.03Q63.92-5.84 66.74-5.84L66.74-5.84Q70.49-5.84 74.12-8.50Z M111.73-17.52L111.73-17.52Q111.93-16.50 111.93-14.95Q111.93-13.40 111.19-11.46Q110.46-9.51 109.16-7.72Q107.86-5.94 106.10-4.40Q104.33-2.87 102.28-1.74L102.28-1.74Q97.86 0.68 93.37 0.68L93.37 0.68Q85.13 0.68 82.67-5.10L82.67-5.10Q81.85-7.03 81.85-9.26Q81.85-11.48 82.44-13.41Q83.04-15.33 84.12-17.18Q85.21-19.02 86.69-20.76Q88.18-22.50 89.96-24.03Q91.75-25.57 93.77-26.84Q95.79-28.11 97.92-29.02L97.92-29.02Q102.44-30.94 106.52-30.94L106.52-30.94Q113.98-30.94 113.98-27.44L113.98-27.44Q113.98-26.45 112.49-25.31L112.49-25.31Q110.85-27.58 107.94-28.48L107.94-28.48Q106.95-28.77 105.50-28.77Q104.06-28.77 102.16-28.18Q100.27-27.60 98.49-26.56Q96.71-25.53 95.15-24.09Q93.59-22.66 92.44-20.94L92.44-20.94Q89.92-17.27 89.92-13.54Q89.92-9.80 91.76-7.92Q93.61-6.04 97.04-6.04L97.04-6.04Q99.51-6.04 102.20-7.27L102.20-7.27Q106.63-9.32 108.29-13.03L108.29-13.03Q108.88-14.32 108.96-15.76L108.96-15.76Q104.68-13.52 100.93-13.52L100.93-13.52Q97.20-13.52 95.87-15.35L95.87-15.35Q95.40-16.00 95.40-16.78Q95.40-17.56 95.96-18.18Q96.52-18.81 97.44-19.34Q98.37-19.86 99.54-20.27Q100.72-20.68 101.97-20.98L101.97-20.98Q104.53-21.58 106.54-21.58L106.54-21.58Q109.70-21.58 110.99-19.49L110.99-19.49Q112.06-20.23 113.22-21.27L113.22-21.27Q114.11-20.51 114.11-19.92L114.11-19.92Q114.11-19.73 113.56-19.09Q113.00-18.46 111.73-17.52ZM108.70-18.07L108.70-18.07Q108.16-19.45 106.30-19.45L106.30-19.45Q103.41-19.45 100.93-18.48L100.93-18.48Q99.72-18.01 99.72-17.48L99.72-17.48Q99.72-16.35 102.42-16.35L102.42-16.35Q105.40-16.35 108.70-18.07Z M142.74-14.88L142.74-14.88Q139.83-16.29 137.53-17.01L137.53-17.01Q132.55-11.00 131.65-5.35L131.65-5.35Q131.51-4.43 131.51-3.51Q131.51-2.58 131.69-1.64L131.69-1.64Q129.74-0.20 127.67 0.51L127.67 0.51Q126.94 0.76 126.49 0.76Q126.05 0.76 125.57 0.53Q125.09 0.29 124.70-0.20L124.70-0.20Q123.76-1.29 123.76-3.11Q123.76-4.92 124.41-6.78Q125.07-8.63 126.22-10.53L126.22-10.53Q128.39-14.10 132.47-17.97L132.47-17.97Q130.87-18.07 129.29-18.07Q127.71-18.07 125.99-17.66L125.99-17.66Q122.35-16.80 121.65-14.38L121.65-14.38Q121.51-13.95 121.51-13.25Q121.51-12.56 121.98-11.46L121.98-11.46Q121.59-10.74 120.17-10.88L120.17-10.88Q118.68-11.02 117.84-11.68L117.84-11.68Q116.26-12.93 116.26-14.43L116.26-14.43Q116.26-17.36 120.36-19.14L120.36-19.14Q124.17-20.80 129.64-20.80L129.64-20.80Q132.08-20.80 134.99-20.18L134.99-20.18Q142.31-26.27 150.01-29.10L150.01-29.10Q153.72-30.47 156.57-30.47L156.57-30.47Q157.90-30.47 158.56-29.87Q159.21-29.28 159.21-28.37Q159.21-27.46 158.73-26.11Q158.25-24.77 157.53-23.12Q156.81-21.46 155.98-19.57Q155.15-17.68 154.42-15.70L154.42-15.70Q152.74-11.11 152.74-7.93L152.74-7.93Q152.74-5.61 154.80-5.61L154.80-5.61Q155.38-5.61 156.08-5.90L156.08-5.90Q156.46-5.64 156.69-5.22Q156.92-4.80 156.92-4.49Q156.92-4.18 156.68-3.59Q156.44-3.01 155.99-2.41Q155.54-1.82 154.90-1.27Q154.27-0.72 153.51-0.29L153.51-0.29Q150.65 1.33 147.33 0.20L147.33 0.20Q144.58-0.72 143.41-3.59L143.41-3.59Q142.82-5.08 142.82-6.97Q142.82-8.87 143.41-10.54Q143.99-12.21 144.94-13.82Q145.89-15.43 147.11-16.93Q148.33-18.44 149.61-19.81Q150.89-21.19 152.11-22.40Q153.33-23.61 154.27-24.65L154.27-24.65Q156.40-26.93 156.40-27.79L156.40-27.79Q156.40-28.24 155.58-28.24L155.58-28.24Q152.02-28.24 147.47-25.59L147.47-25.59Q143.08-23.01 139.23-18.93L139.23-18.93Q142.33-17.81 143.00-16.91L143.00-16.91Q143.76-15.90 142.74-14.88Z M190.91-5.74L190.91-5.74Q191.35-5.61 191.91-5.61Q192.47-5.61 193.17-5.90L193.17-5.90Q193.54-5.64 193.78-5.22Q194.01-4.80 194.01-4.49Q194.01-4.18 193.77-3.59Q193.52-3.01 193.07-2.41Q192.62-1.82 191.99-1.27Q191.35-0.72 190.59-0.29L190.59-0.29Q187.74 1.33 184.42 0.20L184.42 0.20Q181.67-0.72 180.50-3.59L180.50-3.59Q179.91-5.08 179.91-6.79Q179.91-8.50 180.43-9.79Q180.94-11.07 181.78-12.31Q182.62-13.55 183.70-14.74Q184.77-15.92 185.89-17.05Q187.00-18.18 188.07-19.26Q189.15-20.33 189.99-21.37L189.99-21.37Q191.86-23.65 191.86-25.25L191.86-25.25Q191.86-27.29 190.07-27.85L190.07-27.85Q189.54-28.01 188.46-28.01Q187.39-28.01 185.78-27.27Q184.17-26.52 182.58-25.23Q180.98-23.95 179.46-22.21Q177.94-20.47 176.58-18.46Q175.22-16.45 174.11-14.28L174.11-14.28Q170.83-7.87 170.83-3.09L170.83-3.09Q170.83-2.54 170.87-2.03L170.87-2.03Q170.30-1.39 168.89-0.70L168.89-0.70Q166.30 0.53 165.62 0.53Q164.95 0.53 164.48 0.26Q164.01 0 163.62-0.53L163.62-0.53Q162.70-1.72 162.70-3.56Q162.70-5.41 163.30-7.40Q163.89-9.39 164.79-11.48Q165.69-13.57 166.73-15.67Q167.76-17.77 168.66-19.73L168.66-19.73Q170.75-24.28 170.75-26.45L170.75-26.45Q170.75-28.34 170.50-28.98L170.50-28.98Q170.01-30.16 169.09-30.20L169.09-30.20Q169.15-31.50 170.50-31.50L170.50-31.50Q171.84-31.50 172.78-30.51L172.78-30.51Q174.21-29.02 174.21-25.98L174.21-25.98Q174.21-22.44 172.35-18.16L172.35-18.16Q176.98-24.00 180.77-26.91L180.77-26.91Q185.34-30.43 189.42-30.43L189.42-30.43Q193.33-30.43 194.50-27.34L194.50-27.34Q194.89-26.31 194.89-24.87Q194.89-23.44 194.49-22.11Q194.09-20.78 193.47-19.52Q192.86-18.26 192.16-17.01Q191.45-15.76 190.85-14.39L190.85-14.39Q189.42-11.25 189.42-8.11L189.42-8.11Q189.42-6.23 190.91-5.74Z M209.19-20.46Q208.60-19.88 208.10-19.53Q207.60-19.18 207.43-19.18Q207.25-19.18 207.08-19.24Q206.92-19.30 206.74-19.39L206.74-19.39Q206.29-19.63 206.12-19.80L206.12-19.80Q206.39-20.51 206.75-22.37Q207.11-24.24 207.38-25.22Q207.64-26.21 208.07-26.99L208.07-26.99Q209.01-28.75 210.55-28.75L210.55-28.75Q211.53-28.75 212.10-28.11Q212.68-27.46 212.68-26.61Q212.68-25.76 212.36-24.96Q212.04-24.16 211.53-23.35Q211.02-22.54 210.40-21.79Q209.79-21.04 209.19-20.46Z M218.63-1.41L218.63-1.41Q217.15-2.99 216.45-5.01Q215.74-7.03 215.74-8.75Q215.74-10.47 215.93-10.68Q216.11-10.90 216.35-11.05L216.35-11.05Q216.76-11.33 217.34-11.48L217.34-11.48Q218.95-7.38 223.26-6.21L223.26-6.21Q224.65-5.82 226.07-5.82Q227.48-5.82 228.58-6.06Q229.69-6.31 230.51-6.84L230.51-6.84Q232.29-8.01 232.29-10.37L232.29-10.37Q232.29-12.17 230.86-14.38L230.86-14.38Q230.25-15.35 229.55-16.32Q228.85-17.29 228.24-18.28L228.24-18.28Q226.82-20.57 226.82-22.20Q226.82-23.83 227.28-24.91Q227.74-26.00 228.54-26.87Q229.34-27.73 230.42-28.40Q231.50-29.06 232.77-29.51L232.77-29.51Q235.31-30.41 238.16-30.41L238.16-30.41Q240.86-30.41 242.40-29.85Q243.95-29.30 244.60-28.71Q245.25-28.13 245.25-27.56Q245.25-26.99 245.08-26.61Q244.90-26.23 244.63-25.86L244.63-25.86Q244.04-25.10 243.48-24.71L243.48-24.71Q242.13-26.86 238.99-27.73L238.99-27.73Q237.97-28.01 236.85-28.01Q235.72-28.01 234.61-27.73Q233.50-27.46 232.66-26.95L232.66-26.95Q230.76-25.86 230.76-24.10L230.76-24.10Q230.76-23.14 231.44-22.19Q232.11-21.23 233.12-20.20Q234.12-19.16 235.29-18.03Q236.47-16.89 237.46-15.61L237.46-15.61Q239.82-12.60 239.82-9.68Q239.82-6.76 238.73-4.62Q237.64-2.48 235.78-1.05L235.78-1.05Q232.07 1.86 226.43 1.86L226.43 1.86Q221.66 1.86 218.63-1.41Z M270.64-19.61L270.64-19.61Q268.86-17.71 267.81-17.71L267.81-17.71Q266.64-17.71 265.72-19.22L265.72-19.22Q264.82-20.70 264.82-22.36Q264.82-24.02 265.61-25.26Q266.40-26.50 267.71-27.46Q269.02-28.42 270.71-29.12Q272.40-29.82 274.21-30.27L274.21-30.27Q277.81-31.19 280.26-31.19Q282.71-31.19 284.37-30.99Q286.03-30.78 287.57-30.31Q289.12-29.84 290.48-29.11Q291.85-28.38 292.89-27.34L292.89-27.34Q295.07-25.10 295.07-21.74L295.07-21.74Q295.07-18.26 292.89-14.61L292.89-14.61Q290.78-11.07 287.42-8.75L287.42-8.75Q283.84-6.31 280.21-6.31L280.21-6.31Q278.43-6.31 277.08-7.19L277.08-7.19Q276.44-7.64 276.42-8.23Q276.40-8.83 276.44-9.32L276.44-9.32Q276.60-11.33 277.32-14.04L277.32-14.04Q278.74-13.46 280.37-13.46Q281.99-13.46 283.06-13.80Q284.14-14.14 285.22-14.77Q286.30-15.39 287.31-16.25Q288.31-17.11 289.10-18.16L289.10-18.16Q290.80-20.47 290.80-22.54Q290.80-24.61 289.85-25.81Q288.90-27.01 287.42-27.73L287.42-27.73Q284.62-29.12 280.52-29.12L280.52-29.12Q276.99-29.12 273.30-27.70L273.30-27.70Q270.72-26.68 269.58-25.12L269.58-25.12Q269.00-24.30 269.00-23.32L269.00-23.32Q269.00-21.11 270.64-19.61ZM263.33-1.29L263.33-1.29Q264.33-2.34 265.68-4.95Q267.03-7.56 267.98-9.47Q268.94-11.39 269.98-13.40Q271.03-15.41 272.13-17.39Q273.24-19.38 274.37-21.13L274.37-21.13Q276.89-25 278.98-26.56L278.98-26.56Q279.21-26.76 279.50-26.76Q279.78-26.76 280.07-26.66L280.07-26.66Q280.72-26.45 281.21-26.00L281.21-26.00Q278.76-24.04 276.17-15.74L276.17-15.74Q275.42-13.42 274.72-11.10Q274.02-8.79 273.36-6.64Q272.71-4.49 272.06-2.85L272.06-2.85Q270.68 0.76 269.58 0.76L269.58 0.76Q266.13 0.76 264.17-0.64L264.17-0.64Q263.69-1.00 263.33-1.29Z M299.97-0.76L299.97-0.76Q298.02-0.27 297.25-0.27Q296.48-0.27 295.99-0.52Q295.50-0.76 295.11-1.17L295.11-1.17Q294.25-2.07 294.25-2.98Q294.25-3.89 294.62-4.53Q294.99-5.18 295.60-5.66L295.60-5.66Q296.94-6.72 298.19-6.72Q299.44-6.72 300.30-6.60L300.30-6.60Q302.78-8.30 305.36-12.62L305.36-12.62Q306.48-14.51 307.55-16.59Q308.62-18.67 309.75-20.69Q310.87-22.71 312.08-24.54Q313.29-26.37 314.70-27.77L314.70-27.77Q317.76-30.80 321.42-30.80L321.42-30.80Q324.31-30.80 325.83-29.14L325.83-29.14Q327.18-27.66 327.18-25.25L327.18-25.25Q327.18-21.45 324.23-18.13L324.23-18.13Q322.41-16.11 320.40-15.29L320.40-15.29Q319.37-14.88 318.49-14.88Q317.61-14.88 317.04-15.31L317.04-15.31Q315.77-16.31 315.77-18.07L315.77-18.07Q315.77-18.59 315.95-19.00L315.95-19.00Q316.40-18.95 316.92-18.95Q317.43-18.95 318.23-19.10Q319.03-19.26 319.98-19.71Q320.93-20.16 321.75-20.82Q322.57-21.48 323.17-22.29L323.17-22.29Q324.46-23.98 324.46-25.68L324.46-25.68Q324.46-27.70 322.90-28.48L322.90-28.48Q322.37-28.75 321.34-28.75Q320.30-28.75 319.19-28.11Q318.08-27.46 317.15-26.36Q316.22-25.25 315.45-23.77Q314.68-22.29 314.01-20.62Q313.33-18.95 312.72-17.17Q312.10-15.39 311.51-13.69Q310.91-11.99 310.29-10.47Q309.68-8.95 309.00-7.77L309.00-7.77Q307.47-5.20 305.69-4.98L305.69-4.98Q311.10-3.18 315.71-2.54L315.71-2.54Q316.69-2.40 317.41-2.40Q318.14-2.40 318.82-2.54Q319.50-2.68 320.09-2.97L320.09-2.97Q321.42-3.61 321.92-4.71L321.92-4.71Q323.29-4.61 323.29-3.64Q323.29-2.68 323.00-1.69Q322.71-0.70 322.19 0.20Q321.67 1.09 320.96 1.88Q320.25 2.66 319.39 3.22L319.39 3.22Q317.59 4.43 315.74 4.43Q313.90 4.43 312.44 4.08Q310.99 3.73 309.71 3.19Q308.43 2.66 307.26 2.01Q306.09 1.37 304.93 0.78L304.93 0.78Q302.18-0.57 299.97-0.76Z M354.81-14.88L354.81-14.88Q351.90-16.29 349.60-17.01L349.60-17.01Q344.62-11.00 343.72-5.35L343.72-5.35Q343.58-4.43 343.58-3.51Q343.58-2.58 343.76-1.64L343.76-1.64Q341.80-0.20 339.73 0.51L339.73 0.51Q339.01 0.76 338.56 0.76Q338.11 0.76 337.63 0.53Q337.16 0.29 336.77-0.20L336.77-0.20Q335.83-1.29 335.83-3.11Q335.83-4.92 336.48-6.78Q337.14-8.63 338.29-10.53L338.29-10.53Q340.46-14.10 344.54-17.97L344.54-17.97Q342.94-18.07 341.36-18.07Q339.77-18.07 338.05-17.66L338.05-17.66Q334.42-16.80 333.72-14.38L333.72-14.38Q333.58-13.95 333.58-13.25Q333.58-12.56 334.05-11.46L334.05-11.46Q333.66-10.74 332.23-10.88L332.23-10.88Q330.75-11.02 329.91-11.68L329.91-11.68Q328.33-12.93 328.33-14.43L328.33-14.43Q328.33-17.36 332.43-19.14L332.43-19.14Q336.24-20.80 341.71-20.80L341.71-20.80Q344.15-20.80 347.06-20.18L347.06-20.18Q354.38-26.27 362.08-29.10L362.08-29.10Q365.79-30.47 368.64-30.47L368.64-30.47Q369.97-30.47 370.62-29.87Q371.28-29.28 371.28-28.37Q371.28-27.46 370.80-26.11Q370.32-24.77 369.60-23.12Q368.87-21.46 368.04-19.57Q367.21-17.68 366.49-15.70L366.49-15.70Q364.81-11.11 364.81-7.93L364.81-7.93Q364.81-5.61 366.86-5.61L366.86-5.61Q367.45-5.61 368.15-5.90L368.15-5.90Q368.52-5.64 368.76-5.22Q368.99-4.80 368.99-4.49Q368.99-4.18 368.75-3.59Q368.50-3.01 368.05-2.41Q367.61-1.82 366.97-1.27Q366.34-0.72 365.57-0.29L365.57-0.29Q362.72 1.33 359.40 0.20L359.40 0.20Q356.65-0.72 355.48-3.59L355.48-3.59Q354.89-5.08 354.89-6.97Q354.89-8.87 355.48-10.54Q356.06-12.21 357.01-13.82Q357.96-15.43 359.18-16.93Q360.40-18.44 361.68-19.81Q362.96-21.19 364.18-22.40Q365.40-23.61 366.34-24.65L366.34-24.65Q368.46-26.93 368.46-27.79L368.46-27.79Q368.46-28.24 367.64-28.24L367.64-28.24Q364.09-28.24 359.54-25.59L359.54-25.59Q355.14-23.01 351.30-18.93L351.30-18.93Q354.40-17.81 355.07-16.91L355.07-16.91Q355.83-15.90 354.81-14.88Z M397.80-24.69L397.80-24.69Q398.85-25.96 398.85-27.03L398.85-27.03Q398.85-27.83 398.30-28.19Q397.74-28.55 396.49-28.55Q395.24-28.55 393.44-27.92Q391.65-27.29 389.99-26.19Q388.34-25.10 386.91-23.62Q385.47-22.15 384.42-20.45L384.42-20.45Q382.15-16.80 382.15-13.32L382.15-13.32Q382.15-9.82 384.59-7.54L384.59-7.54Q387.43-4.88 392.00-4.88L392.00-4.88Q396.68-4.88 400.26-7.70L400.26-7.70Q401.70-8.85 402.76-10.47L402.76-10.47Q403.64-10.53 403.64-9.75L403.64-9.75Q403.64-9.43 403.44-8.98L403.44-8.98Q401.88-5.29 398.42-2.73L398.42-2.73Q393.29 1.05 386.92 1.05L386.92 1.05Q382.97 1.05 379.95-0.64L379.95-0.64Q376.68-2.46 375.40-6.09L375.40-6.09Q374.73-7.97 374.73-10.12Q374.73-12.27 375.30-14.16Q375.86-16.05 376.89-17.85Q377.91-19.65 379.32-21.29Q380.73-22.93 382.42-24.37Q384.11-25.80 385.99-26.96Q387.88-28.13 389.87-28.95L389.87-28.95Q394.03-30.70 397.78-30.70L397.78-30.70Q401.59-30.70 402.95-28.55L402.95-28.55Q403.44-27.81 403.44-26.88Q403.44-25.94 403.15-25.26Q402.86-24.59 402.41-24.10L402.41-24.10Q401.47-23.09 400.63-23.09L400.63-23.09Q399.85-23.09 398.27-24.28L398.27-24.28Q397.91-24.55 397.80-24.69Z M426.37-8.50L426.37-8.50Q427.33-7.62 427.33-7.27L427.33-7.27Q427.33-5.66 425.61-3.83L425.61-3.83Q422.85-0.86 418.71 0.18L418.71 0.18Q417.31 0.53 415.34 0.53Q413.38 0.53 411.39-0.04Q409.40-0.61 408.01-1.64L408.01-1.64Q405.20-3.77 405.20-7.30L405.20-7.30Q405.20-12.64 409.81-16.05L409.81-16.05Q414.08-19.22 419.85-19.41L419.85-19.41Q416.62-21.46 416.62-24.24L416.62-24.24Q416.62-26.95 421.25-28.79L421.25-28.79Q425.49-30.45 430.16-30.45L430.16-30.45Q433.58-30.45 434.73-28.46L434.73-28.46Q435.10-27.79 435.10-27.03Q435.10-26.27 434.89-25.60Q434.69-24.92 434.34-24.38L434.34-24.38Q433.52-23.14 432.42-23.14L432.42-23.14Q431.74-23.14 430.80-23.93L430.80-23.93Q430.57-24.12 430.45-24.26L430.45-24.26Q431.31-25.27 431.31-26.68L431.31-26.68Q431.31-28.30 429.12-28.30L429.12-28.30Q426.62-28.30 423.81-27.42L423.81-27.42Q420.37-26.33 420.37-24.67L420.37-24.67Q420.37-22.05 425.20-20.20L425.20-20.20Q426.88-19.55 429.10-19.08L429.10-19.08Q428.36-16.25 428.13-15.97Q427.89-15.68 427.79-15.72L427.79-15.72Q425.00-16.68 422.19-16.68L422.19-16.68Q417.72-16.68 415.00-14.45L415.00-14.45Q412.77-12.66 412.77-10.06L412.77-10.06Q412.77-8.20 414.45-7.03L414.45-7.03Q416.17-5.84 418.99-5.84L418.99-5.84Q422.74-5.84 426.37-8.50Z"/></g>
</svg>
</g><g opacity="1" transform="rotate(0 709.0894 556.2586)">
<svg width="121.503" height="2.3974" x="709.0894" y="556.2586" version="1.1" preserveAspectRatio="none" viewBox="0 0 121.503 2.3974">
  <rect x="0" y="0" width="121.503" height="2.3974" class="icon1 aq6WP-wJgVstrokeColor-str" style="stroke-width:0;" rx="0px" ry="0px" />
</svg>
</g></svg>